<svg width="2000" height="1400" viewBox="0 0 2000 1400" fill="none" xmlns="http://www.w3.org/2000/svg">
<g clip-path="url(#clip0_1161_5182)">
<path d="M1764.46 1139.31L1752.48 1132.61L1747.95 1148.1L1759.93 1154.81L1764.46 1139.31Z" fill="#FF15E5"/>
<path d="M1343.79 760.187L1350.08 755.821L1334.09 738.318L1327.8 742.684L1343.79 760.187Z" fill="#6903F9"/>
<path d="M265.875 117.011L267.439 107.161L239.784 102.298L238.22 112.148L265.875 117.011Z" fill="#FF15E5"/>
<path d="M1050.37 717.113L1048.89 705.098L1036.93 705.308L1038.41 717.323L1050.37 717.113Z" fill="#6903F9"/>
<path d="M328.186 479.901L336.062 479.482L331.281 464.5L323.405 464.919L328.186 479.901Z" fill="#FF15E5"/>
<path d="M826.807 1217.13L837.265 1212.48L828.761 1188.91L818.303 1193.56L826.807 1217.13Z" fill="#FF15E5"/>
<path d="M735.354 831.508L734.661 823.312L715.825 819.879L716.518 828.075L735.354 831.508Z" fill="#6903F9"/>
<path d="M990.217 416.018L997.1 406.444L983.186 397.03L976.304 406.604L990.217 416.018Z" fill="#6903F9"/>
<path d="M380.767 1061.58L388.692 1060.17L387.717 1046.21L379.792 1047.62L380.767 1061.58Z" fill="#FF15E5"/>
<path d="M1682.77 943.34L1674.79 943.2L1672.59 961.2L1680.57 961.34L1682.77 943.34Z" fill="#FF15E5"/>
<path d="M1824.16 1145.58L1818.32 1140.14L1810.4 1148.33L1816.24 1153.78L1824.16 1145.58Z" fill="#6903F9"/>
<path d="M105.133 938.35L96.9854 936.086L97.3184 955.817L105.466 958.081L105.133 938.35Z" fill="#FF15E5"/>
<path d="M205.167 882.207L197.566 873.738L178.325 889.138L185.926 897.607L205.167 882.207Z" fill="#6903F9"/>
<path d="M304.141 987.475L306.906 977.657L282.786 972.886L280.021 982.704L304.141 987.475Z" fill="#6903F9"/>
<path d="M185.431 380.54L194.149 375.37L187.283 364.301L178.565 369.471L185.431 380.54Z" fill="#6903F9"/>
<path d="M1783.18 191.577L1778.2 187.614L1763.98 204.402L1768.96 208.365L1783.18 191.577Z" fill="#FF15E5"/>
<path d="M1495.32 37.7573L1493 27.7373L1471.58 30.0541L1473.9 40.0741L1495.32 37.7573Z" fill="#6903F9"/>
<path d="M1041.37 100.139L1039.84 88.9556L1020.49 96.472L1022.02 107.656L1041.37 100.139Z" fill="#6903F9"/>
<path d="M405.045 1043.75L407.861 1034.7L398.195 1033.82L395.378 1042.87L405.045 1043.75Z" fill="#FF15E5"/>
<path d="M1034.12 390.897L1041.29 389.313L1041.56 372.658L1034.39 374.241L1034.12 390.897Z" fill="#FF15E5"/>
<path d="M734.965 1328.1L723.423 1324.37L716.714 1349.24L728.256 1352.97L734.965 1328.1Z" fill="#6903F9"/>
<path d="M424.662 644.467L417.991 633.63L386.412 654.434L393.084 665.271L424.662 644.467Z" fill="#6903F9"/>
<path d="M262.238 562.073L259.007 552.796L249.665 556.926L252.896 566.203L262.238 562.073Z" fill="#FF15E5"/>
<path d="M1294.6 926.858L1297.62 916.633L1280.36 909.531L1277.33 919.756L1294.6 926.858Z" fill="#6903F9"/>
<path d="M1297.05 719.372L1305.84 717.645L1303.95 707.775L1295.16 709.501L1297.05 719.372Z" fill="#6903F9"/>
<path d="M1183.22 1030.21L1195.9 1029.75L1192.49 1011.42L1179.81 1011.89L1183.22 1030.21Z" fill="#6903F9"/>
<path d="M632.494 228.968L627.058 223.665L619.32 231.568L624.756 236.871L632.494 228.968Z" fill="#6903F9"/>
<path d="M370.686 1397.69L368.292 1391.15L349.495 1398.32L351.89 1404.85L370.686 1397.69Z" fill="#6903F9"/>
<path d="M113.833 172.191L122.134 170.777L112.868 153.923L104.567 155.336L113.833 172.191Z" fill="#6903F9"/>
<path d="M844.172 748.909L855.073 750.662L855.501 726.514L844.6 724.761L844.172 748.909Z" fill="#6903F9"/>
<path d="M317.651 72.7675L312.477 62.043L285.881 68.5706L291.055 79.2951L317.651 72.7675Z" fill="#FF15E5"/>
<path d="M1846.44 1226.3L1850.7 1219.23L1831.24 1202.95L1826.98 1210.02L1846.44 1226.3Z" fill="#FF15E5"/>
<path d="M161.555 571.344L148.173 568.621L149.896 593.258L163.278 595.981L161.555 571.344Z" fill="#6903F9"/>
<path d="M943.606 1158.31L954.626 1155.11L939.199 1132.45L928.179 1135.65L943.606 1158.31Z" fill="#6903F9"/>
<path d="M1127.28 701.993L1117.79 698.766L1116.83 721.186L1126.32 724.413L1127.28 701.993Z" fill="#6903F9"/>
<path d="M1208.25 1051.43L1196.04 1046.38L1196.09 1072.54L1208.29 1077.6L1208.25 1051.43Z" fill="#FF15E5"/>
<path d="M1274.04 1140.21L1285.07 1137.69L1270.96 1105L1259.93 1107.53L1274.04 1140.21Z" fill="#6903F9"/>
<path d="M1729.1 753.784L1726.1 744.762L1717.28 745.235L1720.28 754.257L1729.1 753.784Z" fill="#FF15E5"/>
<path d="M1926.6 378.748L1932.99 373.367L1911.24 350.978L1904.85 356.359L1926.6 378.748Z" fill="#FF15E5"/>
<path d="M605.216 418.881L612.355 410.712L590.115 389.936L582.976 398.105L605.216 418.881Z" fill="#FF15E5"/>
<path d="M1124.43 464.38L1116.09 463.113L1118.5 472.113L1126.84 473.38L1124.43 464.38Z" fill="#FF15E5"/>
<path d="M1552.71 1046.66L1545.73 1040.62L1537.22 1050.46L1544.2 1056.5L1552.71 1046.66Z" fill="#FF15E5"/>
<path d="M408.841 853.56L415.796 844.301L403.912 834.24L396.957 843.499L408.841 853.56Z" fill="#6903F9"/>
<path d="M114.955 234.683L109.672 226.428L94.3709 237.915L99.6544 246.17L114.955 234.683Z" fill="#6903F9"/>
<path d="M1690.77 622.517L1694.08 611.307L1679.62 605.928L1676.3 617.138L1690.77 622.517Z" fill="#FF15E5"/>
<path d="M808.414 619.017L820.992 617.883L806.13 582.015L793.552 583.148L808.414 619.017Z" fill="#6903F9"/>
<path d="M1434.33 1145.62L1428.88 1139.62L1417.98 1148.19L1423.43 1154.18L1434.33 1145.62Z" fill="#FF15E5"/>
<path d="M1366.39 986.405L1359.28 985.673L1360.04 992.639L1367.16 993.371L1366.39 986.405Z" fill="#FF15E5"/>
<path d="M1235.64 260.456L1239.41 253.67L1228.79 247.31L1225.02 254.096L1235.64 260.456Z" fill="#6903F9"/>
<path d="M1743.64 622.532L1747.94 611.802L1731.37 607.098L1727.07 617.828L1743.64 622.532Z" fill="#FF15E5"/>
<path d="M1519.28 1184.29L1516.79 1174.29L1489.99 1171.1L1492.49 1181.1L1519.28 1184.29Z" fill="#FF15E5"/>
<path d="M327.945 101.339L324.264 94.3391L316.356 96.4169L320.037 103.417L327.945 101.339Z" fill="#6903F9"/>
<path d="M1885.58 1368.48L1876.21 1354.98L1857.28 1359.63L1866.65 1373.12L1885.58 1368.48Z" fill="#6903F9"/>
<path d="M1178.74 312.684L1174.75 302.285L1141.08 319.796L1145.06 330.195L1178.74 312.684Z" fill="#6903F9"/>
<path d="M644.118 858.169L635.778 845.87L623.142 847.378L631.481 859.677L644.118 858.169Z" fill="#FF15E5"/>
<path d="M474.641 1196.31L473.282 1183.45L458.364 1185.8L459.723 1198.66L474.641 1196.31Z" fill="#6903F9"/>
<path d="M775.474 392.174L780.519 386.788L756.106 365.276L751.062 370.662L775.474 392.174Z" fill="#6903F9"/>
<path d="M250.05 1005.78L248.699 995.36L234.123 993.993L235.473 1004.41L250.05 1005.78Z" fill="#6903F9"/>
<path d="M320.422 813.856L310.541 812.267L309.973 822.297L319.853 823.885L320.422 813.856Z" fill="#6903F9"/>
<path d="M271.029 1056.51L278.755 1055.39L275.617 1045.49L267.891 1046.6L271.029 1056.51Z" fill="#6903F9"/>
<path d="M435.362 670.351L445.166 670.529L443.734 658.263L433.93 658.084L435.362 670.351Z" fill="#6903F9"/>
<path d="M1297.7 338.663L1308.67 337.133L1306.93 317.327L1295.95 318.858L1297.7 338.663Z" fill="#6903F9"/>
<path d="M1955.76 1391.2L1944.94 1380.51L1933.54 1390.88L1944.36 1401.57L1955.76 1391.2Z" fill="#FF15E5"/>
<path d="M1592.6 759.954L1602.43 760.688L1597.31 748.101L1587.48 747.367L1592.6 759.954Z" fill="#FF15E5"/>
<path d="M1292.5 739.862L1294.31 726.893L1262.63 724.1L1260.81 737.069L1292.5 739.862Z" fill="#6903F9"/>
<path d="M1212.52 1192.37L1225.4 1192.83L1223.84 1174.61L1210.96 1174.15L1212.52 1192.37Z" fill="#6903F9"/>
<path d="M282.114 602.875L288.249 597.061L270.904 581.226L264.769 587.041L282.114 602.875Z" fill="#6903F9"/>
<path d="M1868.32 491.172L1861.7 485.226L1848.49 499.949L1855.11 505.895L1868.32 491.172Z" fill="#6903F9"/>
<path d="M1109.85 125.528L1115.86 122.455L1108.11 108.955L1102.09 112.028L1109.85 125.528Z" fill="#6903F9"/>
<path d="M595.099 979.59L595.29 969.651L579.251 966.56L579.06 976.499L595.099 979.59Z" fill="#6903F9"/>
<path d="M376.026 62.6541L371.446 54.887L360.799 57.7918L365.379 65.5589L376.026 62.6541Z" fill="#6903F9"/>
<path d="M658.092 771.673L655.305 763.746L633.219 766.949L636.006 774.876L658.092 771.673Z" fill="#6903F9"/>
<path d="M1503.93 1124.77L1505.6 1117.07L1483.08 1110.72L1481.41 1118.42L1503.93 1124.77Z" fill="#6903F9"/>
<path d="M237.654 1329.12L229.798 1328.41L226.785 1350.54L234.642 1351.25L237.654 1329.12Z" fill="#6903F9"/>
<path d="M1775.08 1003.38L1773.99 994.088L1765.1 992.616L1766.19 1001.91L1775.08 1003.38Z" fill="#6903F9"/>
<path d="M1350.17 855.21L1359.59 845.093L1347.03 833.75L1337.61 843.866L1350.17 855.21Z" fill="#FF15E5"/>
<path d="M1509.17 978.389L1509.48 971.846L1491.6 965.101L1491.3 971.644L1509.17 978.389Z" fill="#FF15E5"/>
<path d="M1816.9 1246.44L1813.55 1235.18L1801.05 1232.58L1804.4 1243.83L1816.9 1246.44Z" fill="#FF15E5"/>
<path d="M1584.1 217.152L1591.2 214.812L1584.52 202.378L1577.41 204.718L1584.1 217.152Z" fill="#FF15E5"/>
<path d="M1290.73 761.877L1298.12 758.646L1284.15 741.739L1276.76 744.97L1290.73 761.877Z" fill="#6903F9"/>
<path d="M467.766 625.251L458.74 621.058L455.537 637.518L464.563 641.711L467.766 625.251Z" fill="#FF15E5"/>
<path d="M32.9642 1171.88L26.0146 1160.39L12.441 1167.3L19.3906 1178.79L32.9642 1171.88Z" fill="#6903F9"/>
<path d="M576.746 1070.59L584.123 1061.4L569.225 1050.13L561.848 1059.32L576.746 1070.59Z" fill="#FF15E5"/>
<path d="M786.874 1345.75L795.107 1344.78L785.27 1327.36L777.037 1328.32L786.874 1345.75Z" fill="#6903F9"/>
<path d="M420.722 1160.68L409.731 1152.03L401.159 1168.31L412.149 1176.96L420.722 1160.68Z" fill="#FF15E5"/>
<path d="M474.266 110.732L466.486 110.306L463.622 121.461L471.402 121.886L474.266 110.732Z" fill="#6903F9"/>
<path d="M1571.4 575.338L1569.31 564.605L1555.58 567.759L1557.67 578.492L1571.4 575.338Z" fill="#FF15E5"/>
<path d="M1836.84 1104.7L1825.53 1102.17L1827.84 1124.09L1839.15 1126.62L1836.84 1104.7Z" fill="#FF15E5"/>
<path d="M505.89 1394.33L512.776 1394.83L514.322 1377.66L507.436 1377.16L505.89 1394.33Z" fill="#6903F9"/>
<path d="M110.562 868.543L114.808 860.238L101.555 854.363L97.3099 862.667L110.562 868.543Z" fill="#FF15E5"/>
<path d="M449.608 690.616L447.887 682.042L423.29 690.243L425.011 698.816L449.608 690.616Z" fill="#FF15E5"/>
<path d="M1604.22 1344.38L1602.86 1331.39L1584.92 1332.02L1586.28 1345.01L1604.22 1344.38Z" fill="#FF15E5"/>
<path d="M1033.52 1290.86L1028.37 1277.86L1012.44 1280.55L1017.59 1293.55L1033.52 1290.86Z" fill="#6903F9"/>
<path d="M770.257 1301.17L781.843 1300.54L764.374 1265.24L752.788 1265.88L770.257 1301.17Z" fill="#6903F9"/>
<path d="M84.9894 833.062L77.6416 830.59L69.8746 848.662L77.2224 851.135L84.9894 833.062Z" fill="#6903F9"/>
<path d="M2008.16 497.798L2003.32 491.097L1997.67 493.405L2002.51 500.106L2008.16 497.798Z" fill="#FF15E5"/>
<path d="M539.139 530.436L540.95 517.718L517.129 512.727L515.317 525.445L539.139 530.436Z" fill="#FF15E5"/>
<path d="M1179.41 467.258L1187.75 462.187L1175.49 445.901L1167.15 450.972L1179.41 467.258Z" fill="#FF15E5"/>
<path d="M125.969 92.9453L118.19 82.8567L93.5984 100.328L101.377 110.416L125.969 92.9453Z" fill="#FF15E5"/>
<path d="M1097.34 1184.82L1089.29 1181.82L1086.46 1196.66L1094.52 1199.66L1097.34 1184.82Z" fill="#FF15E5"/>
<path d="M1924.73 1313.43L1917.05 1300.65L1902.79 1303.99L1910.48 1316.78L1924.73 1313.43Z" fill="#FF15E5"/>
<path d="M1660.15 1155.18L1666.68 1147.62L1647.6 1129.25L1641.07 1136.8L1660.15 1155.18Z" fill="#6903F9"/>
<path d="M745.768 1301.05L755.277 1298.88L738.061 1271.57L728.551 1273.73L745.768 1301.05Z" fill="#FF15E5"/>
<path d="M1735.08 582.448L1737.64 571.513L1719.68 563.864L1717.12 574.799L1735.08 582.448Z" fill="#FF15E5"/>
<path d="M222.371 94.6498L213.188 90.125L210.306 101.445L219.49 105.97L222.371 94.6498Z" fill="#FF15E5"/>
<path d="M405.35 246.974L396.521 244.553L402.029 262.373L410.858 264.795L405.35 246.974Z" fill="#6903F9"/>
<path d="M1526.95 889.52L1536.68 885.007L1521.69 863.601L1511.95 868.113L1526.95 889.52Z" fill="#FF15E5"/>
<path d="M131.851 949.252L134.817 940.412L124.323 938.311L121.356 947.151L131.851 949.252Z" fill="#FF15E5"/>
<path d="M415.385 1406.37L413.491 1393.32L383.525 1392.79L385.419 1405.84L415.385 1406.37Z" fill="#6903F9"/>
<path d="M1780.64 1404.19L1767.31 1399.46L1773.4 1427.73L1786.72 1432.46L1780.64 1404.19Z" fill="#6903F9"/>
<path d="M941.796 696.282L932.257 689.909L925.645 705.409L935.184 711.783L941.796 696.282Z" fill="#6903F9"/>
<path d="M1386.03 1203.59L1384.27 1193.52L1364.04 1191.41L1365.8 1201.48L1386.03 1203.59Z" fill="#6903F9"/>
<path d="M385.922 1260.14L382.465 1246.4L349.676 1247.69L353.133 1261.43L385.922 1260.14Z" fill="#6903F9"/>
<path d="M401.925 211.379L405.77 202.93L389.895 193.601L386.05 202.051L401.925 211.379Z" fill="#6903F9"/>
<path d="M1419.35 135.693L1425.59 133.521L1421.74 125.884L1415.51 128.055L1419.35 135.693Z" fill="#6903F9"/>
<path d="M1081.8 1115.86L1071.29 1112.61L1071.11 1123.01L1081.62 1126.27L1081.8 1115.86Z" fill="#FF15E5"/>
<path d="M1060.27 1142.2L1070.98 1139.73L1065.58 1116.33L1054.87 1118.8L1060.27 1142.2Z" fill="#6903F9"/>
<path d="M1858.78 782.419L1867.31 780.22L1856.11 758.495L1847.58 760.694L1858.78 782.419Z" fill="#6903F9"/>
<path d="M1281.65 524.757L1270.91 516.847L1262.17 533.975L1272.9 541.886L1281.65 524.757Z" fill="#6903F9"/>
<path d="M496.911 192.786L494.78 183.873L479.429 187.241L481.56 196.154L496.911 192.786Z" fill="#6903F9"/>
<path d="M1611.96 556.847L1614.12 548.257L1596.92 541.663L1594.76 550.253L1611.96 556.847Z" fill="#6903F9"/>
<path d="M1587.77 884.545L1579.14 881.907L1573.64 901.08L1582.27 903.718L1587.77 884.545Z" fill="#6903F9"/>
<path d="M1234.78 768.69L1232.87 760.5L1219.93 766.269L1221.84 774.459L1234.78 768.69Z" fill="#6903F9"/>
<path d="M1576.72 276.553L1566.19 277.91L1575.22 307.053L1585.74 305.695L1576.72 276.553Z" fill="#FF15E5"/>
<path d="M775.824 1072.08L787.027 1070.59L781.614 1058.46L770.411 1059.95L775.824 1072.08Z" fill="#6903F9"/>
<path d="M285.867 594.455L295.002 589.97L283.841 572.57L274.707 577.055L285.867 594.455Z" fill="#FF15E5"/>
<path d="M1905.94 610.722L1913.85 611.865L1913.14 590.522L1905.23 589.379L1905.94 610.722Z" fill="#6903F9"/>
<path d="M1117.08 25.0038L1128.28 22.5107L1128.24 -8.90334L1117.03 -6.4103L1117.08 25.0038Z" fill="#FF15E5"/>
<path d="M932.271 1197.61L939.168 1198.23L939.427 1191.15L932.53 1190.53L932.271 1197.61Z" fill="#6903F9"/>
<path d="M1055.16 460.865L1049.02 457.453L1044.81 465.368L1050.96 468.78L1055.16 460.865Z" fill="#6903F9"/>
<path d="M334.327 1083.26L341.603 1081.82L332.292 1058.37L325.016 1059.81L334.327 1083.26Z" fill="#FF15E5"/>
<path d="M1003.6 106.63L1011.7 97.4846L1000.81 87.5471L992.719 96.6927L1003.6 106.63Z" fill="#FF15E5"/>
<path d="M1095.01 871.406L1102.64 861.148L1080.46 843.255L1072.83 853.514L1095.01 871.406Z" fill="#6903F9"/>
<path d="M1626.54 620.219L1632.24 615.471L1619.57 600.765L1613.87 605.514L1626.54 620.219Z" fill="#6903F9"/>
<path d="M926.396 308.105L938.532 305.813L931.37 286.813L919.234 289.105L926.396 308.105Z" fill="#6903F9"/>
<path d="M1200.04 518.399L1194.26 509.479L1181.7 518.645L1187.47 527.566L1200.04 518.399Z" fill="#6903F9"/>
<path d="M759.993 923.393L748.719 916.384L740.819 936.842L752.093 943.851L759.993 923.393Z" fill="#6903F9"/>
<path d="M1529.44 1314.71L1535.84 1308.73L1522.22 1295.68L1515.82 1301.66L1529.44 1314.71Z" fill="#FF15E5"/>
<path d="M1656.89 1207.85L1664.76 1207.15L1661.36 1192.2L1653.49 1192.9L1656.89 1207.85Z" fill="#FF15E5"/>
<path d="M990.598 844.155L1002.24 841.251L997.403 821.846L985.759 824.749L990.598 844.155Z" fill="#FF15E5"/>
<path d="M884.376 1028.96L892.271 1026.82L884.607 1007.24L876.712 1009.38L884.376 1028.96Z" fill="#FF15E5"/>
<path d="M204.712 65.9773L208.619 57.3213L189.289 46.3992L185.381 55.0552L204.712 65.9773Z" fill="#FF15E5"/>
<path d="M784.035 955.68L787.935 947.093L767.457 939.105L763.558 947.693L784.035 955.68Z" fill="#6903F9"/>
<path d="M805.054 408.797L801.872 401.63L792.422 402.346L795.604 409.513L805.054 408.797Z" fill="#6903F9"/>
<path d="M1490.72 1195.78L1482.81 1187.49L1475.59 1195.22L1483.5 1203.51L1490.72 1195.78Z" fill="#6903F9"/>
<path d="M94.0071 631.493L105.662 635.415L107.708 606.245L96.0531 602.323L94.0071 631.493Z" fill="#FF15E5"/>
<path d="M1375.38 354.793L1375.9 346.906L1350.45 334.796L1349.93 342.683L1375.38 354.793Z" fill="#6903F9"/>
<path d="M1186.87 852.812L1192.63 845.124L1159.56 817.066L1153.8 824.755L1186.87 852.812Z" fill="#FF15E5"/>
<path d="M1462.94 1132.31L1456.11 1127.08L1449.43 1137.2L1456.27 1142.42L1462.94 1132.31Z" fill="#6903F9"/>
<path d="M446.32 781.085L453.859 777.035L448.713 763.883L441.174 767.932L446.32 781.085Z" fill="#FF15E5"/>
<path d="M1576.27 534.085L1574.5 527.128L1556.86 525.053L1558.63 532.011L1576.27 534.085Z" fill="#6903F9"/>
<path d="M886.789 842.944L897.084 832.644L873.281 809.739L862.985 820.039L886.789 842.944Z" fill="#FF15E5"/>
<path d="M360.152 535.291L367.425 529.18L358.027 517.826L350.754 523.937L360.152 535.291Z" fill="#FF15E5"/>
<path d="M814.959 1116.68L807.674 1114.98L808.386 1128.6L815.672 1130.3L814.959 1116.68Z" fill="#FF15E5"/>
<path d="M1808.22 1196.01L1808.93 1188.37L1792.81 1181.56L1792.1 1189.21L1808.22 1196.01Z" fill="#6903F9"/>
<path d="M483.561 1087.35L485.237 1076.91L472.223 1072.67L470.546 1083.11L483.561 1087.35Z" fill="#FF15E5"/>
<path d="M1769.73 1217.84L1779.2 1219.44L1773.78 1204.28L1764.3 1202.68L1769.73 1217.84Z" fill="#FF15E5"/>
<path d="M22.4724 346.746L33.7783 344.433L27.2638 325.599L15.9579 327.911L22.4724 346.746Z" fill="#6903F9"/>
<path d="M1923.74 988.151L1915.79 986.61L1914.06 1008.42L1922.01 1009.96L1923.74 988.151Z" fill="#6903F9"/>
<path d="M619.616 1049.38L625.802 1040.19L594.842 1016.85L588.656 1026.04L619.616 1049.38Z" fill="#FF15E5"/>
<path d="M1706.38 481.867L1696.73 483.276L1702.77 509.343L1712.42 507.934L1706.38 481.867Z" fill="#FF15E5"/>
<path d="M228.344 593.473L219.162 582.469L207.165 589.001L216.347 600.006L228.344 593.473Z" fill="#6903F9"/>
<path d="M200.791 232.617L195.259 222.678L184.475 224.997L190.008 234.935L200.791 232.617Z" fill="#6903F9"/>
<path d="M205.151 875.824L199.74 867.297L185.552 876.355L190.962 884.882L205.151 875.824Z" fill="#6903F9"/>
<path d="M43.576 1156.53L52.6572 1155.74L54.0572 1139.76L44.976 1140.55L43.576 1156.53Z" fill="#6903F9"/>
<path d="M422.065 1041.25L417.161 1032.2L408.807 1033.31L413.711 1042.36L422.065 1041.25Z" fill="#FF15E5"/>
<path d="M1600.61 984.452L1588.95 982.556L1584.89 1003.5L1596.55 1005.4L1600.61 984.452Z" fill="#6903F9"/>
<path d="M1841.88 782.759L1828.89 782.306L1828.09 805.292L1841.08 805.745L1841.88 782.759Z" fill="#6903F9"/>
<path d="M1324.85 553.42L1318.93 543.838L1303.61 549.442L1309.52 559.024L1324.85 553.42Z" fill="#FF15E5"/>
<path d="M125.2 737.284L135.31 738.164L131.048 716.033L120.938 715.152L125.2 737.284Z" fill="#6903F9"/>
<path d="M834.908 273.151L845.783 275.499L846.662 250.402L835.787 248.054L834.908 273.151Z" fill="#6903F9"/>
<path d="M272.642 853.346L274.126 846.761L259.074 838.078L257.59 844.663L272.642 853.346Z" fill="#6903F9"/>
<path d="M1038.59 110.562L1029.78 107.019L1026.5 120.002L1035.31 123.545L1038.59 110.562Z" fill="#6903F9"/>
<path d="M365.551 438.14L373.171 432.149L355.476 412.86L347.856 418.851L365.551 438.14Z" fill="#6903F9"/>
<path d="M1357.39 223.924L1357.99 213.258L1338.67 208.322L1338.07 218.988L1357.39 223.924Z" fill="#6903F9"/>
<path d="M64.8589 921.181L72.8242 916.411L68.1199 907.929L60.1546 912.699L64.8589 921.181Z" fill="#FF15E5"/>
<path d="M1818.76 749.442L1827.87 742.517L1818.07 726.921L1808.96 733.846L1818.76 749.442Z" fill="#6903F9"/>
<path d="M1672.31 1234.13L1670.9 1226.14L1661.69 1225.04L1663.1 1233.03L1672.31 1234.13Z" fill="#6903F9"/>
<path d="M292.418 142.892L299.625 133.412L274.131 113.663L266.923 123.142L292.418 142.892Z" fill="#6903F9"/>
<path d="M765.391 781.68L776.4 779.097L765.192 744.667L754.183 747.25L765.391 781.68Z" fill="#FF15E5"/>
<path d="M399.286 1148.94L406.583 1145.04L396.379 1128.29L389.082 1132.2L399.286 1148.94Z" fill="#FF15E5"/>
<path d="M479.523 912.046L477.999 901.292L443.913 891.727L445.437 902.481L479.523 912.046Z" fill="#6903F9"/>
<path d="M693.873 1183.72L702.095 1181.02L696.926 1166.3L688.705 1169L693.873 1183.72Z" fill="#6903F9"/>
<path d="M1722.92 864.919L1716.94 855.078L1706.14 857.374L1712.12 867.214L1722.92 864.919Z" fill="#6903F9"/>
<path d="M1375.02 1022.52L1379 1010.38L1364.98 1004.15L1361 1016.29L1375.02 1022.52Z" fill="#FF15E5"/>
<path d="M1821.98 700.203L1814.08 696.994L1815.65 708.272L1823.55 711.481L1821.98 700.203Z" fill="#FF15E5"/>
<path d="M1247.97 1207.09L1235.56 1203.5L1228.57 1226.63L1240.97 1230.22L1247.97 1207.09Z" fill="#FF15E5"/>
<path d="M284.244 872.107L272.824 869.997L269.044 882.959L280.464 885.069L284.244 872.107Z" fill="#6903F9"/>
<path d="M623.285 719.065L634.354 714.39L623.318 689.689L612.249 694.364L623.285 719.065Z" fill="#FF15E5"/>
<path d="M1768.11 473.995L1769.09 466.019L1761.24 464.612L1760.26 472.589L1768.11 473.995Z" fill="#FF15E5"/>
<path d="M1236.54 872.092L1241.96 869.881L1226.39 850.435L1220.96 852.646L1236.54 872.092Z" fill="#FF15E5"/>
<path d="M751.932 1175.36L754.427 1167.02L730.263 1157.65L727.768 1165.99L751.932 1175.36Z" fill="#FF15E5"/>
<path d="M639.885 270.316L642.796 258.554L618.319 250.273L615.408 262.035L639.885 270.316Z" fill="#6903F9"/>
<path d="M1647.59 274.951L1659.02 272.245L1649.43 241.966L1638 244.672L1647.59 274.951Z" fill="#FF15E5"/>
<path d="M702.158 214.742L693.531 208.545L683.735 221.909L692.361 228.106L702.158 214.742Z" fill="#FF15E5"/>
<path d="M1225.7 475.685L1218.71 467.786L1197.83 485.683L1204.81 493.583L1225.7 475.685Z" fill="#FF15E5"/>
<path d="M1968.11 662.509L1976.23 655.943L1961.09 637.049L1952.96 643.614L1968.11 662.509Z" fill="#6903F9"/>
<path d="M447.859 249.706L456.836 250.974L456.837 225.909L447.861 224.641L447.859 249.706Z" fill="#6903F9"/>
<path d="M911.926 1114.78L923.715 1115.86L922.72 1095.41L910.931 1094.34L911.926 1114.78Z" fill="#FF15E5"/>
<path d="M1128.56 696.479L1126.82 686.013L1107.94 692.593L1109.68 703.058L1128.56 696.479Z" fill="#FF15E5"/>
<path d="M1305.89 1015.99L1314.55 1014.74L1306.22 989.969L1297.56 991.222L1305.89 1015.99Z" fill="#FF15E5"/>
<path d="M654.924 876.854L648.902 866.63L627.618 868.688L633.64 878.912L654.924 876.854Z" fill="#6903F9"/>
<path d="M1507.47 412.852L1504.88 405.929L1497.26 407.182L1499.85 414.105L1507.47 412.852Z" fill="#6903F9"/>
<path d="M1913.56 1190.46L1919.18 1187.53L1912.77 1177.17L1907.15 1180.11L1913.56 1190.46Z" fill="#FF15E5"/>
<path d="M76.7287 1042.02L88.1865 1036.31L80.2213 1020.99L68.7635 1026.7L76.7287 1042.02Z" fill="#6903F9"/>
<path d="M231.176 1054.39L224.261 1048.76L216.879 1061.27L223.793 1066.89L231.176 1054.39Z" fill="#FF15E5"/>
<path d="M727.597 139.034L716.196 132.473L709.606 147.627L721.007 154.187L727.597 139.034Z" fill="#FF15E5"/>
<path d="M904.626 196.705L895.837 189.847L882.943 208.232L891.731 215.089L904.626 196.705Z" fill="#FF15E5"/>
<path d="M324.014 389.331L312.696 380.152L299.181 401.352L310.499 410.531L324.014 389.331Z" fill="#FF15E5"/>
<path d="M228.95 361.891L224.121 352.187L203.189 357.752L208.018 367.456L228.95 361.891Z" fill="#6903F9"/>
<path d="M1440.19 452.777L1433.72 445.994L1422.57 457.943L1429.04 464.726L1440.19 452.777Z" fill="#6903F9"/>
<path d="M1722.21 993.094L1714.72 990.923L1715.73 1005.24L1723.21 1007.41L1722.21 993.094Z" fill="#6903F9"/>
<path d="M1749.36 1003.14L1759.29 1000.56L1749.14 969.99L1739.2 972.577L1749.36 1003.14Z" fill="#FF15E5"/>
<path d="M1235.05 996.553L1247.48 994.273L1238.14 961.455L1225.72 963.735L1235.05 996.553Z" fill="#6903F9"/>
<path d="M922.421 864.075L909.788 861.136L912.86 882.749L925.493 885.688L922.421 864.075Z" fill="#6903F9"/>
<path d="M960.249 594.243L966.921 587.831L956.322 576.432L949.651 582.844L960.249 594.243Z" fill="#6903F9"/>
<path d="M1556.1 543.898L1566.5 537.363L1557.99 523.105L1547.58 529.641L1556.1 543.898Z" fill="#FF15E5"/>
<path d="M251.382 824.664L264.255 823.304L261.468 803.402L248.595 804.762L251.382 824.664Z" fill="#6903F9"/>
<path d="M476.362 867.378L487.363 864.879L486.594 854.055L475.592 856.554L476.362 867.378Z" fill="#FF15E5"/>
<path d="M1126.51 1016.87L1129.77 1012.26L1113.74 998.448L1110.47 1003.05L1126.51 1016.87Z" fill="#FF15E5"/>
<path d="M1406.02 672.519L1405.24 663.53L1382.32 664.734L1383.1 673.723L1406.02 672.519Z" fill="#FF15E5"/>
<path d="M753.634 286.917L746.696 282.212L743.937 289.421L750.875 294.126L753.634 286.917Z" fill="#6903F9"/>
<path d="M1508.12 595.51L1507.43 582.388L1481.34 575.844L1482.02 588.966L1508.12 595.51Z" fill="#6903F9"/>
<path d="M716.566 880.907L711.754 872.552L696.917 871.732L701.729 880.086L716.566 880.907Z" fill="#FF15E5"/>
<path d="M1323.98 1156.33L1321.15 1149.21L1305.66 1149.78L1308.49 1156.9L1323.98 1156.33Z" fill="#6903F9"/>
<path d="M1469.33 832.532L1461.26 826.919L1444.86 850.221L1452.93 855.834L1469.33 832.532Z" fill="#FF15E5"/>
<path d="M2007.33 1153.97L2004.52 1146L1984.1 1147.83L1986.91 1155.8L2007.33 1153.97Z" fill="#FF15E5"/>
<path d="M1489.22 33.2283L1495.18 29.0771L1481.43 11.8051L1475.47 15.9563L1489.22 33.2283Z" fill="#FF15E5"/>
<path d="M1733.63 452.288L1738.14 443.971L1716.41 434.166L1711.9 442.482L1733.63 452.288Z" fill="#6903F9"/>
<path d="M625.77 452.302L624.345 442.314L608.206 441.477L609.631 451.464L625.77 452.302Z" fill="#6903F9"/>
<path d="M1842.64 1241.38L1850.98 1232.31L1829.41 1212.6L1821.07 1221.67L1842.64 1241.38Z" fill="#6903F9"/>
<path d="M1475.29 398.643L1472.89 390.653L1459.09 391.386L1461.5 399.376L1475.29 398.643Z" fill="#6903F9"/>
<path d="M1032.71 1305.18L1041.49 1300.16L1030.9 1284.93L1022.12 1289.95L1032.71 1305.18Z" fill="#FF15E5"/>
<path d="M1913.75 295.112L1906.9 290.517L1898.93 305.62L1905.78 310.215L1913.75 295.112Z" fill="#6903F9"/>
<path d="M398.364 1399.63L392.469 1387.21L363.117 1400.33L369.013 1412.76L398.364 1399.63Z" fill="#6903F9"/>
<path d="M409.932 429.253L406.252 420.723L394.367 424.965L398.047 433.496L409.932 429.253Z" fill="#FF15E5"/>
<path d="M1627.36 689.446L1637.51 689.04L1621.63 663.673L1611.48 664.079L1627.36 689.446Z" fill="#FF15E5"/>
<path d="M1628.6 216.072L1636.58 205.664L1624 196.012L1616.02 206.419L1628.6 216.072Z" fill="#FF15E5"/>
<path d="M1092.56 974.696L1095.08 967.776L1068.64 951.068L1066.12 957.987L1092.56 974.696Z" fill="#6903F9"/>
<path d="M243.396 106.372L236.249 95.3271L207.503 109.67L214.65 120.715L243.396 106.372Z" fill="#FF15E5"/>
<path d="M1026.04 233.844L1023.98 223.893L999.672 227.833L1001.73 237.784L1026.04 233.844Z" fill="#FF15E5"/>
<path d="M1990.63 1041.98L1995.83 1035.97L1974.94 1017.77L1969.75 1023.78L1990.63 1041.98Z" fill="#FF15E5"/>
<path d="M536.726 818.489L545.8 811.757L529.643 793.657L520.57 800.39L536.726 818.489Z" fill="#FF15E5"/>
<path d="M530.259 860.767L540.754 857.012L524.107 825.236L513.612 828.991L530.259 860.767Z" fill="#6903F9"/>
<path d="M1775.34 683.825L1784.44 673.743L1773.92 663.981L1764.81 674.063L1775.34 683.825Z" fill="#FF15E5"/>
<path d="M517.382 801.543L523.915 797.982L516.477 786.118L509.944 789.679L517.382 801.543Z" fill="#FF15E5"/>
<path d="M437.844 879.031L431.017 876.636L426.41 894.501L433.237 896.896L437.844 879.031Z" fill="#6903F9"/>
<path d="M301.788 791.032L293.464 788.824L293.523 798.45L301.847 800.658L301.788 791.032Z" fill="#6903F9"/>
<path d="M504.281 99.5245L512.39 91.7888L494.632 72.9649L486.524 80.7006L504.281 99.5245Z" fill="#6903F9"/>
<path d="M907.704 218.419L909.395 210.983L888.593 203.097L886.903 210.533L907.704 218.419Z" fill="#FF15E5"/>
<path d="M1304.63 836.166L1311.05 830.888L1303.49 821.676L1297.07 826.954L1304.63 836.166Z" fill="#6903F9"/>
<path d="M1664.97 671.045L1675.72 666.935L1661.97 638.706L1651.22 642.816L1664.97 671.045Z" fill="#6903F9"/>
<path d="M92.6177 93.1888L100.391 94.658L98.9538 71.7439L91.1808 70.2747L92.6177 93.1888Z" fill="#FF15E5"/>
<path d="M449.034 281.538L438.914 272.31L420.002 293.604L430.122 302.832L449.034 281.538Z" fill="#6903F9"/>
<path d="M376.321 890.24L372.932 880.92L354.596 878.3L357.985 887.62L376.321 890.24Z" fill="#6903F9"/>
<path d="M1067.69 273.425L1078.5 274.99L1078.94 262.841L1068.13 261.276L1067.69 273.425Z" fill="#FF15E5"/>
<path d="M1787.99 917.645L1790 912.098L1773.4 902.194L1771.39 907.74L1787.99 917.645Z" fill="#FF15E5"/>
<path d="M946.924 1083.3L951.986 1070.94L939.138 1066.36L934.076 1078.72L946.924 1083.3Z" fill="#FF15E5"/>
<path d="M153.788 1219.9L144.756 1209.37L123.873 1228.89L132.905 1239.41L153.788 1219.9Z" fill="#FF15E5"/>
<path d="M1584 514.719L1575.89 505.488L1554.5 521.837L1562.6 531.068L1584 514.719Z" fill="#FF15E5"/>
<path d="M1303.33 542.146L1306.1 532.385L1288.14 527.067L1285.37 536.828L1303.33 542.146Z" fill="#6903F9"/>
<path d="M245.638 659.761L237.181 654.731L231.366 669.363L239.824 674.394L245.638 659.761Z" fill="#FF15E5"/>
<path d="M790.561 335.371L790.354 322.117L762.813 317.083L763.019 330.337L790.561 335.371Z" fill="#6903F9"/>
<path d="M1202.98 836.333L1209.43 827.86L1188.46 811.055L1182.02 819.528L1202.98 836.333Z" fill="#6903F9"/>
<path d="M1758.93 948.853L1748.89 939.143L1736.33 950.9L1746.37 960.61L1758.93 948.853Z" fill="#FF15E5"/>
<path d="M1986.02 338.37L1997.14 335.456L1983.97 303.314L1972.84 306.228L1986.02 338.37Z" fill="#6903F9"/>
<path d="M1776.74 379.894L1782.65 375.768L1774.83 366.326L1768.93 370.452L1776.74 379.894Z" fill="#FF15E5"/>
<path d="M1251.01 419.195L1259.43 418.866L1250.35 403.19L1241.92 403.519L1251.01 419.195Z" fill="#6903F9"/>
<path d="M1765.16 279.278L1768.5 272.465L1752.31 267.772L1748.97 274.584L1765.16 279.278Z" fill="#FF15E5"/>
<path d="M647.561 647.428L653.301 637.025L637.92 626.398L632.18 636.8L647.561 647.428Z" fill="#6903F9"/>
<path d="M246.395 547.332L239.057 534.641L209.174 548.506L216.512 561.197L246.395 547.332Z" fill="#6903F9"/>
<path d="M969.621 1024.93L970.089 1017.9L952.26 1016.32L951.792 1023.35L969.621 1024.93Z" fill="#6903F9"/>
<path d="M440.752 429.18L435.562 424.67L427.54 433.885L432.73 438.395L440.752 429.18Z" fill="#6903F9"/>
<path d="M1105.26 1036L1099.12 1031.19L1084.96 1048.76L1091.1 1053.58L1105.26 1036Z" fill="#6903F9"/>
<path d="M1259.17 1227.25L1257.66 1216.72L1238 1210.78L1239.51 1221.31L1259.17 1227.25Z" fill="#FF15E5"/>
<path d="M413.654 1361.77L426.478 1362.23L413.107 1331.33L400.283 1330.87L413.654 1361.77Z" fill="#6903F9"/>
<path d="M996.996 719.259L1001.18 713.281L981.764 697.999L977.581 703.977L996.996 719.259Z" fill="#6903F9"/>
<path d="M572.518 1346.64L562.973 1340.6L554.424 1358.24L563.97 1364.28L572.518 1346.64Z" fill="#6903F9"/>
<path d="M379.853 1384.41L381.31 1377.51L374.459 1376.3L373.003 1383.19L379.853 1384.41Z" fill="#6903F9"/>
<path d="M1437.51 490.924L1430.54 489.186L1430.2 499.144L1437.17 500.882L1437.51 490.924Z" fill="#6903F9"/>
<path d="M93.904 600.984L102.623 595.965L93.9434 580.317L85.2244 585.336L93.904 600.984Z" fill="#FF15E5"/>
<path d="M1735.27 1385.16L1725.44 1374.43L1716.57 1381.94L1726.4 1392.67L1735.27 1385.16Z" fill="#FF15E5"/>
<path d="M1125.79 563.547L1128.83 557.644L1111.66 547.239L1108.62 553.142L1125.79 563.547Z" fill="#6903F9"/>
<path d="M340.072 915.198L330.092 906.162L308.85 929.914L318.83 938.95L340.072 915.198Z" fill="#6903F9"/>
<path d="M1594.93 538.818L1606.02 537.072L1602.48 524.646L1591.39 526.392L1594.93 538.818Z" fill="#6903F9"/>
<path d="M1155.36 1382.75L1162.97 1377.71L1155.63 1366.79L1148.03 1371.83L1155.36 1382.75Z" fill="#6903F9"/>
<path d="M1298.63 404.645L1293.49 395.385L1277.57 405.225L1282.71 414.486L1298.63 404.645Z" fill="#6903F9"/>
<path d="M174.144 1357.31L180.776 1349.91L165.404 1335.41L158.772 1342.81L174.144 1357.31Z" fill="#FF15E5"/>
<path d="M1818.82 59.6603L1818.49 50.6699L1793.4 48.9237L1793.73 57.914L1818.82 59.6603Z" fill="#6903F9"/>
<path d="M260.541 904.701L267.924 900.538L257.432 883.292L250.049 887.455L260.541 904.701Z" fill="#FF15E5"/>
<path d="M197.307 96.409L204.552 85.457L183.719 73.8837L176.475 84.8356L197.307 96.409Z" fill="#6903F9"/>
<path d="M574.73 743.855L569.844 732.369L549.339 742.704L554.224 754.189L574.73 743.855Z" fill="#FF15E5"/>
<path d="M1062.81 288.146L1050.72 286.889L1051.45 305.831L1063.53 307.088L1062.81 288.146Z" fill="#FF15E5"/>
<path d="M702.563 406.238L701.294 398.247L681.051 396.85L682.32 404.841L702.563 406.238Z" fill="#6903F9"/>
<path d="M259.446 839.675L263.465 830.806L246.908 827.035L242.889 835.905L259.446 839.675Z" fill="#FF15E5"/>
<path d="M1593.18 736.507L1580.51 731.165L1578.22 756.72L1590.89 762.061L1593.18 736.507Z" fill="#6903F9"/>
<path d="M1345.97 954.513L1342.92 945.563L1324.95 948.894L1328 957.845L1345.97 954.513Z" fill="#FF15E5"/>
<path d="M1027.18 732.897L1030.65 726.863L1024.61 723.238L1021.14 729.271L1027.18 732.897Z" fill="#FF15E5"/>
<path d="M1947.53 282.914L1953.84 280.404L1946.8 265.458L1940.49 267.968L1947.53 282.914Z" fill="#6903F9"/>
<path d="M1014.28 680.64L1007.47 678.585L1004.78 690.105L1011.59 692.159L1014.28 680.64Z" fill="#6903F9"/>
<path d="M379.897 547.599L386.166 540.294L374.711 529.714L368.442 537.018L379.897 547.599Z" fill="#FF15E5"/>
<path d="M715.702 989.209L702.717 983.127L699.534 999.656L712.52 1005.74L715.702 989.209Z" fill="#6903F9"/>
<path d="M354.08 101.302L365.043 93.1194L349.717 71.3561L338.754 79.5386L354.08 101.302Z" fill="#FF15E5"/>
<path d="M1163.03 528.47L1157.08 519.88L1149.14 523.544L1155.09 532.134L1163.03 528.47Z" fill="#6903F9"/>
<path d="M1410.96 1115.79L1405.3 1104.81L1392.03 1106.28L1397.7 1117.26L1410.96 1115.79Z" fill="#FF15E5"/>
<path d="M301.045 719.356L306.136 716.045L294.192 701.812L289.101 705.123L301.045 719.356Z" fill="#FF15E5"/>
<path d="M1852.76 405.569L1841.84 397.733L1830.33 417.68L1841.24 425.517L1852.76 405.569Z" fill="#FF15E5"/>
<path d="M1951.75 319.436L1943.53 312.826L1928.77 332.596L1936.99 339.206L1951.75 319.436Z" fill="#6903F9"/>
<path d="M155.77 370.413L165.073 368.638L155.79 342.461L146.488 344.236L155.77 370.413Z" fill="#6903F9"/>
<path d="M520.488 871.67L513.719 863.353L496.241 877.331L503.01 885.649L520.488 871.67Z" fill="#6903F9"/>
<path d="M1056.14 968.517L1063.82 956.928L1053.06 952.849L1045.38 964.438L1056.14 968.517Z" fill="#6903F9"/>
<path d="M676.418 719.207L683.565 720.083L680.355 709.897L673.207 709.021L676.418 719.207Z" fill="#FF15E5"/>
</g>
<defs>
<clipPath id="clip0_1161_5182">
<rect width="2000" height="1400" fill="white"/>
</clipPath>
</defs>
</svg>
